<svg width="32" height="32" viewBox="0 0 32 32" fill="none" xmlns="http://www.w3.org/2000/svg">
<rect width="32" height="32" rx="16" fill="white"/>
<path d="M14.8073 11.895L12.7777 17.0082L10.7728 11.895H7.33325L11.1222 20.7925L9.74132 24H13.1128L18.1577 11.895H14.8073ZM18.5809 16.7446C18.1686 16.7446 17.7657 16.8666 17.4229 17.0951C17.0801 17.3235 16.8129 17.6483 16.6552 18.0282C16.4974 18.4082 16.4561 18.8262 16.5365 19.2296C16.617 19.6329 16.8155 20.0034 17.107 20.2942C17.3985 20.585 17.7699 20.783 18.1743 20.8633C18.5786 20.9435 18.9977 20.9023 19.3786 20.7449C19.7595 20.5876 20.085 20.3211 20.314 19.9791C20.5431 19.6372 20.6653 19.2352 20.6653 18.8239C20.6653 18.5509 20.6114 18.2805 20.5067 18.0282C20.4019 17.7759 20.2484 17.5467 20.0548 17.3537C19.8613 17.1606 19.6315 17.0074 19.3786 16.9029C19.1257 16.7984 18.8546 16.7446 18.5809 16.7446ZM20.9281 8L17.5985 15.9811H21.3502L24.6666 8H20.9281Z" fill="#36337F"/>
</svg>
