<svg width="13" height="17" viewBox="0 0 13 17" fill="none" xmlns="http://www.w3.org/2000/svg">
<path d="M9.68193 0.508007C9.64793 0.470007 8.42293 0.523007 7.35693 1.68001C6.29093 2.83601 6.45493 4.16201 6.47893 4.19601C6.50293 4.23001 7.99893 4.28301 8.95393 2.93801C9.90893 1.59301 9.71593 0.547007 9.68193 0.508007ZM12.9959 12.241C12.9479 12.145 10.6709 11.007 10.8829 8.81901C11.0949 6.63001 12.5579 6.03001 12.5809 5.96501C12.6039 5.90001 11.9839 5.17501 11.3269 4.80801C10.8445 4.54926 10.3107 4.40102 9.76393 4.37401C9.65593 4.37101 9.28093 4.27901 8.50993 4.49001C8.00193 4.62901 6.85693 5.07901 6.54193 5.09701C6.22593 5.11501 5.28593 4.57501 4.27493 4.43201C3.62793 4.30701 2.94193 4.56301 2.45093 4.76001C1.96093 4.95601 1.02893 5.51401 0.376926 6.99701C-0.275074 8.47901 0.0659258 10.827 0.309926 11.557C0.553926 12.286 0.934926 13.481 1.58293 14.353C2.15893 15.337 2.92293 16.02 3.24193 16.252C3.56093 16.484 4.46093 16.638 5.08493 16.319C5.58693 16.011 6.49293 15.834 6.85093 15.847C7.20793 15.86 7.91193 16.001 8.63293 16.386C9.20393 16.583 9.74393 16.501 10.2849 16.281C10.8259 16.06 11.6089 15.222 12.5229 13.523C12.8699 12.733 13.0279 12.306 12.9959 12.241Z" fill="#19184C"/>
<path d="M9.68193 0.508007C9.64793 0.470007 8.42293 0.523007 7.35693 1.68001C6.29093 2.83601 6.45493 4.16201 6.47893 4.19601C6.50293 4.23001 7.99893 4.28301 8.95393 2.93801C9.90893 1.59301 9.71593 0.547007 9.68193 0.508007ZM12.9959 12.241C12.9479 12.145 10.6709 11.007 10.8829 8.81901C11.0949 6.63001 12.5579 6.03001 12.5809 5.96501C12.6039 5.90001 11.9839 5.17501 11.3269 4.80801C10.8445 4.54926 10.3107 4.40102 9.76393 4.37401C9.65593 4.37101 9.28093 4.27901 8.50993 4.49001C8.00193 4.62901 6.85693 5.07901 6.54193 5.09701C6.22593 5.11501 5.28593 4.57501 4.27493 4.43201C3.62793 4.30701 2.94193 4.56301 2.45093 4.76001C1.96093 4.95601 1.02893 5.51401 0.376926 6.99701C-0.275074 8.47901 0.0659258 10.827 0.309926 11.557C0.553926 12.286 0.934926 13.481 1.58293 14.353C2.15893 15.337 2.92293 16.02 3.24193 16.252C3.56093 16.484 4.46093 16.638 5.08493 16.319C5.58693 16.011 6.49293 15.834 6.85093 15.847C7.20793 15.86 7.91193 16.001 8.63293 16.386C9.20393 16.583 9.74393 16.501 10.2849 16.281C10.8259 16.06 11.6089 15.222 12.5229 13.523C12.8699 12.733 13.0279 12.306 12.9959 12.241Z" fill="url(#paint0_linear_18_80)"/>
<defs>
<linearGradient id="paint0_linear_18_80" x1="6.49998" y1="0.5" x2="6.49998" y2="16.5001" gradientUnits="userSpaceOnUse">
<stop stop-color="#15D8F9"/>
<stop offset="1" stop-color="#483EDA"/>
</linearGradient>
</defs>
</svg>
