<svg width="22" height="18" viewBox="0 0 22 18" fill="none" xmlns="http://www.w3.org/2000/svg">
<path d="M7.66669 13.1665L11 16.4998L14.3334 13.1665" stroke="#E84ECF" stroke-width="2" stroke-linecap="round" stroke-linejoin="round"/>
<path d="M11 9V16.5" stroke="#E84ECF" stroke-width="2" stroke-linecap="round" stroke-linejoin="round"/>
<path d="M18.4 14.0749C19.1245 13.5655 19.6678 12.8384 19.9511 11.9992C20.2343 11.1601 20.2428 10.2525 19.9753 9.40813C19.7078 8.56381 19.1782 7.82669 18.4634 7.30375C17.7486 6.78081 16.8857 6.49925 16 6.49994H14.95C14.6994 5.52317 14.2304 4.61598 13.5784 3.84668C12.9265 3.07737 12.1085 2.46599 11.186 2.05857C10.2636 1.65115 9.26071 1.4583 8.25294 1.49454C7.24518 1.53078 6.25877 1.79517 5.36797 2.2678C4.47717 2.74043 3.70519 3.40898 3.11016 4.22314C2.51513 5.03729 2.11255 5.97582 1.93272 6.96807C1.7529 7.96032 1.80051 8.98044 2.07199 9.95163C2.34346 10.9228 2.83172 11.8198 3.50001 12.5749" stroke="#E84ECF" stroke-width="2" stroke-linecap="round" stroke-linejoin="round"/>
</svg>
