<svg width="16" height="17" viewBox="0 0 16 17" fill="none" xmlns="http://www.w3.org/2000/svg">
<path d="M15.8531 7.04384H8.16283V10.1396H12.5561C12.3666 11.1403 11.7919 11.9866 10.9256 12.5537C10.1934 13.0332 9.25901 13.3167 8.1607 13.3167C6.03432 13.3167 4.23573 11.9095 3.59292 10.0187C3.43116 9.53922 3.3375 9.02639 3.3375 8.49896C3.3375 7.97153 3.43116 7.4587 3.59292 6.97922C4.23786 5.09049 6.03645 3.68332 8.16283 3.68332C9.36118 3.68332 10.4361 4.08775 11.2832 4.87994L13.6246 2.58469C12.2091 1.29218 10.3637 0.5 8.16283 0.5C4.9722 0.5 2.21152 2.29283 0.868432 4.90704C0.315019 5.98691 0 7.20853 0 8.50104C0 9.79355 0.315019 11.0131 0.868432 12.093C2.21152 14.7072 4.9722 16.5 8.16283 16.5C10.368 16.5 12.2155 15.7829 13.565 14.5612C15.1082 13.1687 16 11.1173 16 8.68033C16 8.11329 15.9489 7.56919 15.8531 7.04384Z" fill="url(#paint0_linear_18_7)"/>
<defs>
<linearGradient id="paint0_linear_18_7" x1="8" y1="0.5" x2="8" y2="16.5" gradientUnits="userSpaceOnUse">
<stop stop-color="#15D8F9"/>
<stop offset="1" stop-color="#483EDA"/>
</linearGradient>
</defs>
</svg>
