<svg width="32" height="32" viewBox="0 0 32 32" fill="none" xmlns="http://www.w3.org/2000/svg">
<path d="M9.04119 20.1229C8.94603 20.4818 8.66052 20.5536 8.39881 20.3143L3.30734 15.5289C3.04563 15.2896 3.09321 14.9786 3.4263 14.835L10.5639 11.9638C10.897 11.8202 11.0873 12.0116 11.0159 12.3466L9.04119 20.1229Z" fill="white"/>
<path d="M4.83003 24.6691C4.56832 24.9084 4.28282 24.8127 4.21144 24.4538L2.80771 16.6775C2.73634 16.3186 2.90288 16.2228 3.16459 16.486L8.01815 21.0322C8.27986 21.2715 8.27986 21.6782 7.99436 21.9175L4.83003 24.6691Z" fill="white"/>
<path d="M10.6827 10.4323C10.9206 10.6955 10.8255 11.0305 10.4924 11.1741L3.37859 14.0214C3.04551 14.165 2.87896 13.9975 2.99792 13.6386L5.92433 5.74262C6.04329 5.40764 6.35259 5.35979 6.56671 5.62299L10.6827 10.4323Z" fill="white"/>
<path d="M3.23596 23.3529C3.30734 23.7118 3.18838 23.7597 2.99804 23.4486L0.238176 19.1657C0.04784 18.8546 0.04784 18.3761 0.261967 18.0889L1.49915 16.438C1.71328 16.1508 1.9512 16.1987 1.99878 16.5576L3.23596 23.3529Z" fill="white"/>
<path d="M2.35553 13.1598C2.23658 13.4948 2.04624 13.4948 1.92728 13.1598L0.975603 10.3125C0.856643 9.97753 0.975603 9.49899 1.26111 9.25972L4.61577 6.19704C4.87748 5.95777 4.99644 6.02955 4.87748 6.36453L2.35553 13.1598Z" fill="white"/>
<path d="M1.47523 14.2608C1.59419 14.5958 1.49902 15.1222 1.2849 15.4093L0.309427 16.7014C0.0952995 16.9885 -0.0474521 16.9407 -0.0236602 16.5817L0.475971 12.0595C0.523554 11.7006 0.642514 11.6767 0.737682 12.0356L1.47523 14.2608Z" fill="white"/>
<path d="M5.25845 4.09141C5.3774 4.23497 5.25845 4.54602 4.99673 4.78529L3.49784 6.17307C3.23613 6.41234 3.18855 6.36448 3.40267 6.07736L4.66365 4.3546C4.87777 4.09141 5.13949 3.97177 5.25845 4.09141Z" fill="white"/>
<path d="M14.7986 28.1144C14.6083 28.4255 14.299 28.4255 14.1086 28.1384L10.1354 22.348C9.92127 22.0609 10.064 21.7737 10.4209 21.7498L18.3436 20.9363C18.7005 20.8884 18.8432 21.1277 18.6529 21.4388L14.7986 28.1144Z" fill="white"/>
<path d="M13.1334 28.1145C13.3476 28.4017 13.2286 28.5691 12.8955 28.4495L5.44863 25.9132C5.11555 25.7936 5.04417 25.5065 5.32967 25.2672L8.51779 22.4917C8.7795 22.2524 9.18397 22.3002 9.3743 22.6113L13.1334 28.1145Z" fill="white"/>
<path d="M18.5342 19.5725C18.7721 19.8357 18.6769 20.0989 18.32 20.1467L10.2784 20.9842C9.92148 21.032 9.70735 20.7688 9.80252 20.4099L11.8248 12.5379C11.92 12.179 12.1817 12.1311 12.4196 12.3943L18.5342 19.5725Z" fill="white"/>
<path d="M24.3156 26.3438C24.5535 26.607 24.4584 26.8941 24.1015 26.9659L15.8933 28.7126C15.5364 28.7844 15.3936 28.593 15.584 28.2819L19.4383 21.6302C19.6286 21.3191 19.9617 21.2952 20.1996 21.5584L24.3156 26.3438Z" fill="white"/>
<path d="M11.1346 30.7705C10.8253 30.938 10.3495 30.8901 10.064 30.6508L6.25729 27.2771C5.99558 27.0378 6.04316 26.9421 6.37625 27.0618L12.8714 29.287C13.2045 29.4066 13.2283 29.6459 12.919 29.8134L11.1346 30.7705Z" fill="white"/>
<path d="M19.9616 31.0814C19.6761 31.3207 19.2002 31.3685 18.8672 31.201L16.2025 29.8372C15.8932 29.6697 15.917 29.4783 16.25 29.4065L23.3163 27.923C23.6731 27.8513 23.7207 27.9709 23.459 28.2102L19.9616 31.0814Z" fill="white"/>
<path d="M12.586 31.249C12.2291 31.225 12.2053 31.0815 12.5146 30.914L13.9421 30.1483C14.2514 29.9808 14.7748 29.9808 15.1079 30.1244L17.1778 31.1772C17.4871 31.3447 17.4633 31.4643 17.1064 31.4404L12.586 31.249Z" fill="white"/>
<path d="M25.624 27.8752C25.743 28.0187 25.5764 28.258 25.2671 28.4255L23.3875 29.4304C23.0783 29.5979 23.0307 29.5501 23.3162 29.3347L24.8864 28.0427C25.1719 27.8034 25.505 27.7316 25.624 27.8752Z" fill="white"/>
<path d="M20.8896 19.5007C20.5565 19.6443 20.3661 19.4529 20.4375 19.1179L22.4123 11.3416C22.5074 10.9827 22.7929 10.9109 23.0546 11.1502L28.1461 15.9356C28.4078 16.1749 28.3602 16.4859 28.0272 16.6295L20.8896 19.5007Z" fill="white"/>
<path d="M28.6693 14.7871C28.7407 15.146 28.5742 15.2417 28.3125 14.9785L23.4589 10.4324C23.1972 10.1931 23.1972 9.78636 23.4827 9.54709L26.647 6.79547C26.9087 6.5562 27.1942 6.65191 27.2656 7.01082L28.6693 14.7871Z" fill="white"/>
<path d="M25.5528 25.6977C25.4338 26.0327 25.1245 26.0806 24.9104 25.8174L20.7944 21.0559C20.5565 20.7927 20.6516 20.4577 20.9847 20.3141L28.0985 17.4668C28.4316 17.3232 28.5981 17.4907 28.4792 17.8496L25.5528 25.6977Z" fill="white"/>
<path d="M31.2389 12.2985C31.4293 12.6096 31.4293 13.0881 31.1914 13.3753L29.9542 15.0262C29.74 15.3134 29.5021 15.2655 29.4545 14.9066L28.2412 8.11129C28.1698 7.75239 28.2887 7.70453 28.4791 8.01558L31.2389 12.2985Z" fill="white"/>
<path d="M30.5013 21.1518C30.6203 21.4868 30.5013 21.9653 30.2158 22.2046L26.8612 25.2672C26.5994 25.5065 26.4805 25.4347 26.5994 25.0998L29.1214 18.3045C29.2403 17.9695 29.4307 17.9695 29.5496 18.3045L30.5013 21.1518Z" fill="white"/>
<path d="M31.001 19.405C30.9535 19.7639 30.8345 19.7879 30.7393 19.429L30.0018 17.2037C29.8828 16.8688 29.978 16.3424 30.1921 16.0552L31.1676 14.7632C31.3817 14.476 31.5245 14.5239 31.5007 14.8828L31.001 19.405Z" fill="white"/>
<path d="M26.8136 27.0856C26.5995 27.3727 26.3378 27.4924 26.2188 27.3488C26.0999 27.2053 26.2188 26.8942 26.4805 26.6549L27.9794 25.2672C28.2411 25.0279 28.2887 25.0518 28.0746 25.3629L26.8136 27.0856Z" fill="white"/>
<path d="M21.3415 9.11609C21.5556 9.40321 21.4129 9.69034 21.056 9.71427L13.1333 10.5278C12.7764 10.5756 12.6336 10.3364 12.824 10.0253L16.6783 3.34965C16.8686 3.0386 17.1779 3.0386 17.3682 3.32572L21.3415 9.11609Z" fill="white"/>
<path d="M22.9592 8.97299C22.6975 9.21226 22.293 9.1644 22.1027 8.85335L18.3435 3.35011C18.1294 3.06299 18.2484 2.8955 18.5815 3.01513L26.0045 5.55141C26.3376 5.67104 26.409 5.95817 26.1235 6.19744L22.9592 8.97299Z" fill="white"/>
<path d="M19.6997 18.9265C19.6045 19.2854 19.3428 19.3333 19.1049 19.0701L12.9428 11.8919C12.7049 11.6287 12.8 11.3655 13.1569 11.3177L21.1986 10.4802C21.5555 10.4324 21.7696 10.6956 21.6744 11.0545L19.6997 18.9265Z" fill="white"/>
<path d="M12.0152 9.83407C11.8249 10.1451 11.4918 10.169 11.2539 9.90585L7.16167 5.12042C6.92375 4.85723 7.01892 4.5701 7.3758 4.49832L15.5602 2.77557C15.9171 2.70379 16.0599 2.8952 15.8695 3.20625L12.0152 9.83407Z" fill="white"/>
<path d="M18.5815 2.20154C18.2484 2.0819 18.2246 1.84263 18.5339 1.67514L20.3421 0.694128C20.6514 0.526638 21.1272 0.574492 21.4127 0.813764L25.2194 4.18749C25.4811 4.42676 25.4335 4.52247 25.1005 4.40283L18.5815 2.20154Z" fill="white"/>
<path d="M8.13684 3.54124C7.77996 3.61302 7.73238 3.49338 7.99409 3.25411L11.5153 0.382855C11.8008 0.143584 12.2766 0.09573 12.6097 0.26322L15.2744 1.62707C15.5837 1.79456 15.5599 1.98597 15.2268 2.05775L8.13684 3.54124Z" fill="white"/>
<path d="M17.5585 1.3161C17.2492 1.48359 16.7258 1.48359 16.3927 1.34002L14.3228 0.28723C14.0135 0.0958126 14.0373 -0.023823 14.3942 0.000104099L18.8909 0.215448C19.2478 0.239375 19.2953 0.382938 18.9623 0.550428L17.5585 1.3161Z" fill="white"/>
<path d="M6.56679 3.4216C6.28129 3.66087 5.97199 3.73265 5.85303 3.58909C5.73407 3.44552 5.90062 3.20625 6.20991 3.03876L8.08947 2.03382C8.39877 1.86633 8.44635 1.91419 8.16085 2.12953L6.56679 3.4216Z" fill="white"/>
<path d="M4.16365 26.2723C4.3064 26.1527 4.6157 26.2723 4.85362 26.5355L6.23355 28.0429C6.47147 28.3061 6.42389 28.354 6.13838 28.1386L4.42536 26.8705C4.16365 26.6551 4.04469 26.3919 4.16365 26.2723Z" fill="white"/>
<path d="M27.8129 5.79051C27.9556 5.67087 28.1935 5.83836 28.3601 6.14941L29.3593 8.03966C29.5259 8.35071 29.4783 8.39857 29.2642 8.11144L27.9794 6.53225C27.7415 6.24512 27.6701 5.91014 27.8129 5.79051Z" fill="white"/>
<path d="M27.0278 4.59418C27.3133 4.80953 27.4323 5.07273 27.2895 5.19236C27.1468 5.312 26.8375 5.19236 26.5996 4.92916L25.2196 3.42176C24.9817 3.15856 25.0055 3.1107 25.3148 3.32605L27.0278 4.59418Z" fill="white"/>
<path d="M3.49754 24.9561C3.73546 25.2433 3.80683 25.5543 3.66408 25.6739C3.52133 25.7936 3.28341 25.6261 3.11687 25.315L2.1176 23.4248C1.95106 23.1137 1.99864 23.0659 2.21277 23.353L3.49754 24.9561Z" fill="white"/>
</svg>
