<svg width="232" height="232" viewBox="0 0 232 232" fill="none" xmlns="http://www.w3.org/2000/svg">
<g filter="url(#filter0_d_18_164)">
<circle cx="116" cy="92" r="40" fill="url(#paint0_linear_18_164)"/>
</g>
<path d="M127.788 94.0911L108.699 105.167C107.079 106.106 105 104.969 105 103.076V80.9241C105 79.0341 107.076 77.8941 108.699 78.8361L127.788 89.9121C128.157 90.1224 128.463 90.4265 128.676 90.7935C128.889 91.1605 129.001 91.5772 129.001 92.0016C129.001 92.4259 128.889 92.8427 128.676 93.2096C128.463 93.5766 128.157 93.8807 127.788 94.0911Z" fill="url(#paint1_linear_18_164)"/>
<defs>
<filter id="filter0_d_18_164" x="0" y="0" width="232" height="232" filterUnits="userSpaceOnUse" color-interpolation-filters="sRGB">
<feFlood flood-opacity="0" result="BackgroundImageFix"/>
<feColorMatrix in="SourceAlpha" type="matrix" values="0 0 0 0 0 0 0 0 0 0 0 0 0 0 0 0 0 0 127 0" result="hardAlpha"/>
<feOffset dy="24"/>
<feGaussianBlur stdDeviation="38"/>
<feComposite in2="hardAlpha" operator="out"/>
<feColorMatrix type="matrix" values="0 0 0 0 0.909804 0 0 0 0 0.305882 0 0 0 0 0.811765 0 0 0 0.48 0"/>
<feBlend mode="normal" in2="BackgroundImageFix" result="effect1_dropShadow_18_164"/>
<feBlend mode="normal" in="SourceGraphic" in2="effect1_dropShadow_18_164" result="shape"/>
</filter>
<linearGradient id="paint0_linear_18_164" x1="116" y1="86" x2="116" y2="187" gradientUnits="userSpaceOnUse">
<stop stop-color="white"/>
<stop offset="1" stop-color="#C5CFF8"/>
</linearGradient>
<linearGradient id="paint1_linear_18_164" x1="117.001" y1="78.499" x2="117.001" y2="105.503" gradientUnits="userSpaceOnUse">
<stop stop-color="#15D8F9"/>
<stop offset="1" stop-color="#483EDA"/>
</linearGradient>
</defs>
</svg>
