<svg width="199" height="58" viewBox="0 0 199 58" fill="none" xmlns="http://www.w3.org/2000/svg">
<path d="M13.184 40L18.08 18.88H24.768C27.008 18.88 28.7573 19.424 30.016 20.512C31.296 21.6 31.936 23.04 31.936 24.832C31.936 26.2613 31.584 27.5413 30.88 28.672C30.176 29.7813 29.184 30.656 27.904 31.296C26.624 31.9147 25.12 32.224 23.392 32.224H16.928L17.568 29.312H23.776C24.8213 29.312 25.6853 29.12 26.368 28.736C27.0507 28.352 27.5627 27.84 27.904 27.2C28.2453 26.5387 28.416 25.824 28.416 25.056C28.416 24.0747 28.0853 23.2853 27.424 22.688C26.784 22.0907 25.792 21.792 24.448 21.792H20.864L16.64 40H13.184ZM38.9113 40.256C37.7593 40.256 36.7459 40 35.8713 39.488C35.0179 38.976 34.3993 38.24 34.0153 37.28C33.6526 36.32 33.6313 35.1573 33.9513 33.792L36.2233 24H39.6473L37.4393 33.504C37.1406 34.784 37.2579 35.7653 37.7913 36.448C38.3459 37.1093 39.1673 37.44 40.2552 37.44C41.1086 37.44 41.8553 37.2587 42.4953 36.896C43.1566 36.512 43.7113 35.9573 44.1593 35.232C44.6073 34.4853 44.9486 33.568 45.1833 32.48L47.1673 24H50.5913L46.8793 40H43.8393L44.5113 35.968L44.8313 36.224C44.4046 37.568 43.6473 38.5813 42.5593 39.264C41.4926 39.9253 40.2766 40.256 38.9113 40.256ZM63.6653 23.744C64.7746 23.744 65.7666 24.0107 66.6413 24.544C67.5373 25.0773 68.2306 25.856 68.7213 26.88C69.2333 27.904 69.4893 29.152 69.4893 30.624C69.4893 31.9467 69.2866 33.1947 68.8813 34.368C68.4759 35.52 67.9106 36.544 67.1853 37.44C66.4813 38.336 65.6386 39.04 64.6573 39.552C63.6973 40.064 62.6413 40.32 61.4893 40.32C60.5719 40.32 59.7399 40.16 58.9933 39.84C58.2466 39.52 57.6386 39.072 57.1693 38.496C56.6999 37.8987 56.3799 37.2267 56.2093 36.48L55.3453 40H51.9853L57.3613 16.8H60.7853L58.5133 26.56C59.0253 25.728 59.7293 25.056 60.6253 24.544C61.5426 24.0107 62.5559 23.744 63.6653 23.744ZM61.0093 37.568C61.7133 37.568 62.3746 37.3973 62.9933 37.056C63.6119 36.6933 64.1559 36.2027 64.6253 35.584C65.0946 34.9653 65.4573 34.24 65.7133 33.408C65.9693 32.576 66.0973 31.6907 66.0973 30.752C66.0973 29.792 65.9373 29.0027 65.6173 28.384C65.2973 27.744 64.8493 27.264 64.2733 26.944C63.7186 26.624 63.0786 26.464 62.3533 26.464C61.5853 26.464 60.8813 26.6453 60.2413 27.008C59.6226 27.3707 59.0786 27.872 58.6093 28.512C58.1613 29.1307 57.8199 29.8667 57.5853 30.72C57.3506 31.5733 57.2333 32.48 57.2333 33.44C57.2333 34.6773 57.5533 35.68 58.1933 36.448C58.8333 37.1947 59.7719 37.568 61.0093 37.568ZM76.5353 40.256C74.9353 40.256 73.8153 39.7867 73.1753 38.848C72.5353 37.9093 72.3966 36.672 72.7593 35.136L77.0153 16.8H80.4392L76.1833 35.168C75.9699 36 76.0233 36.608 76.3433 36.992C76.6633 37.3547 77.2179 37.536 78.0073 37.536C78.3059 37.536 78.5619 37.5253 78.7753 37.504C79.0099 37.4827 79.2126 37.4507 79.3833 37.408L78.6473 39.904C78.3059 40.032 77.9753 40.1173 77.6553 40.16C77.3566 40.224 76.9833 40.256 76.5353 40.256ZM88.0088 21.312C87.3688 21.312 86.8568 21.1413 86.4728 20.8C86.0888 20.4587 85.9181 19.9893 85.9608 19.392C85.9821 18.6453 86.2168 18.0693 86.6648 17.664C87.1128 17.2587 87.6781 17.056 88.3608 17.056C89.0221 17.056 89.5341 17.2267 89.8968 17.568C90.2808 17.888 90.4621 18.336 90.4408 18.912C90.3981 19.7013 90.1528 20.2987 89.7048 20.704C89.2568 21.1093 88.6914 21.312 88.0088 21.312ZM88.8088 24L85.0968 40H81.6728L85.3848 24H88.8088ZM98.46 40.288C96.924 40.288 95.6013 39.968 94.492 39.328C93.404 38.688 92.5613 37.824 91.964 36.736C91.388 35.6267 91.1 34.4 91.1 33.056C91.1 31.2427 91.452 29.6427 92.156 28.256C92.8813 26.848 93.884 25.7387 95.164 24.928C96.4653 24.1173 97.9907 23.712 99.74 23.712C101.02 23.712 102.14 23.936 103.1 24.384C104.081 24.8107 104.86 25.4187 105.436 26.208C106.033 26.9973 106.396 27.8933 106.524 28.896L103.1 29.6C103.057 28.704 102.748 27.9467 102.172 27.328C101.617 26.7093 100.764 26.4 99.612 26.4C98.8653 26.4 98.1827 26.5813 97.564 26.944C96.9453 27.2853 96.4013 27.7653 95.932 28.384C95.484 28.9813 95.132 29.696 94.876 30.528C94.6413 31.3387 94.524 32.2133 94.524 33.152C94.524 34.0053 94.684 34.7733 95.004 35.456C95.324 36.1173 95.7827 36.64 96.38 37.024C96.9987 37.408 97.756 37.6 98.652 37.6C99.3987 37.6 100.103 37.3973 100.764 36.992C101.425 36.5653 101.895 35.9573 102.172 35.168L105.372 36.288C104.796 37.568 103.9 38.56 102.684 39.264C101.468 39.9467 100.06 40.288 98.46 40.288ZM118.403 40L123.299 18.88H131.523C133.357 18.88 134.776 19.3173 135.779 20.192C136.803 21.0453 137.315 22.208 137.315 23.68C137.315 24.7253 137.112 25.6533 136.707 26.464C136.323 27.2533 135.789 27.9147 135.107 28.448C134.424 28.96 133.635 29.312 132.739 29.504V29.536C133.784 29.6853 134.627 30.1333 135.267 30.88C135.928 31.6267 136.259 32.5227 136.259 33.568C136.259 34.976 135.917 36.16 135.235 37.12C134.552 38.08 133.603 38.8053 132.387 39.296C131.192 39.7653 129.795 40 128.195 40H118.403ZM122.467 37.152H127.907C129.464 37.152 130.648 36.832 131.459 36.192C132.291 35.552 132.707 34.656 132.707 33.504C132.707 32.928 132.579 32.448 132.323 32.064C132.067 31.68 131.683 31.392 131.171 31.2C130.68 31.008 130.061 30.912 129.315 30.912H123.907L122.467 37.152ZM124.547 28.032H129.475C130.392 28.032 131.171 27.872 131.811 27.552C132.451 27.232 132.941 26.7947 133.283 26.24C133.624 25.664 133.795 25.0027 133.795 24.256C133.795 23.3387 133.485 22.6987 132.867 22.336C132.269 21.952 131.501 21.76 130.563 21.76H126.019L124.547 28.032ZM147.115 40.288C145.6 40.288 144.299 39.9787 143.211 39.36C142.123 38.72 141.28 37.856 140.683 36.768C140.085 35.68 139.787 34.4533 139.787 33.088C139.787 31.3813 140.128 29.824 140.811 28.416C141.493 26.9867 142.485 25.8453 143.787 24.992C145.088 24.1387 146.656 23.712 148.491 23.712C149.856 23.712 151.029 23.9893 152.011 24.544C152.992 25.0987 153.739 25.8773 154.251 26.88C154.763 27.8613 155.019 29.0133 155.019 30.336C155.019 30.7627 154.987 31.2 154.923 31.648C154.88 32.096 154.784 32.544 154.635 32.992H141.739V30.368H152.779L151.531 31.264C151.616 31.008 151.669 30.7627 151.691 30.528C151.712 30.272 151.723 30.0373 151.723 29.824C151.723 29.12 151.584 28.512 151.307 28C151.051 27.488 150.667 27.0933 150.155 26.816C149.643 26.5387 149.035 26.4 148.331 26.4C147.371 26.4 146.549 26.6027 145.867 27.008C145.205 27.392 144.672 27.9253 144.267 28.608C143.861 29.2693 143.573 30.0053 143.403 30.816C143.232 31.6267 143.147 32.4267 143.147 33.216C143.147 34.112 143.317 34.8907 143.659 35.552C144.021 36.192 144.512 36.6933 145.131 37.056C145.771 37.4187 146.517 37.6 147.371 37.6C148.373 37.6 149.184 37.3867 149.803 36.96C150.443 36.5333 150.955 35.9893 151.339 35.328L154.091 36.8C153.664 37.5253 153.099 38.1547 152.395 38.688C151.712 39.2 150.923 39.5947 150.027 39.872C149.152 40.1493 148.181 40.288 147.115 40.288ZM163.587 40.256C162.478 40.256 161.528 40.0533 160.739 39.648C159.971 39.2213 159.427 38.6027 159.107 37.792C158.787 36.9813 158.755 36 159.011 34.848L162.307 20.512L165.987 19.488L162.371 34.88C162.158 35.8187 162.286 36.5013 162.755 36.928C163.224 37.3333 163.832 37.536 164.579 37.536C165.091 37.536 165.528 37.472 165.891 37.344C166.275 37.216 166.616 37.0453 166.915 36.832L167.171 39.36C166.616 39.7013 166.04 39.936 165.443 40.064C164.867 40.192 164.248 40.256 163.587 40.256ZM157.731 26.688L158.339 24H169.699L169.091 26.688H157.731ZM176.772 40.256C175.598 40.256 174.553 39.9787 173.636 39.424C172.718 38.848 172.004 38.048 171.492 37.024C170.98 36 170.724 34.7947 170.724 33.408C170.724 32.1067 170.916 30.8693 171.299 29.696C171.705 28.5227 172.26 27.488 172.964 26.592C173.689 25.6747 174.542 24.96 175.524 24.448C176.526 23.936 177.614 23.68 178.788 23.68C179.662 23.68 180.452 23.8293 181.156 24.128C181.881 24.4267 182.489 24.864 182.98 25.44C183.47 26.016 183.801 26.72 183.972 27.552L184.804 24H188.228L184.516 40H181.476L182.02 37.024C181.486 38.0053 180.75 38.7947 179.812 39.392C178.894 39.968 177.881 40.256 176.772 40.256ZM177.956 37.536C178.638 37.536 179.278 37.3547 179.876 36.992C180.494 36.6293 181.028 36.128 181.476 35.488C181.945 34.848 182.308 34.112 182.564 33.28C182.841 32.4267 182.98 31.5413 182.98 30.624C182.98 29.7707 182.82 29.0347 182.5 28.416C182.201 27.776 181.774 27.2853 181.22 26.944C180.686 26.6027 180.046 26.432 179.3 26.432C178.51 26.432 177.796 26.6133 177.156 26.976C176.537 27.3387 175.993 27.84 175.524 28.48C175.076 29.0987 174.724 29.824 174.468 30.656C174.212 31.4667 174.084 32.32 174.084 33.216C174.084 34.1333 174.233 34.912 174.532 35.552C174.83 36.192 175.268 36.6827 175.844 37.024C176.42 37.3653 177.124 37.536 177.956 37.536Z" fill="url(#paint0_linear_2_176)"/>
<rect x="1" y="1" width="197" height="56" rx="19" stroke="#483EDA" stroke-width="2" stroke-dasharray="8 8"/>
<defs>
<linearGradient id="paint0_linear_2_176" x1="216.418" y1="29" x2="-18.2021" y2="37.2162" gradientUnits="userSpaceOnUse">
<stop offset="0.169477" stop-color="#E84ECF"/>
<stop offset="1" stop-color="#15D8F9"/>
</linearGradient>
</defs>
</svg>
